<mxfile host="app.diagrams.net" modified="2023-08-05T18:17:43.453Z" agent="Mozilla/5.0 (Windows NT 10.0; Win64; x64) AppleWebKit/537.36 (KHTML, like Gecko) Chrome/115.0.0.0 Safari/537.36" etag="unyc6XHv9mOEJ8VWZn2f" version="21.6.6" type="github">
  <diagram name="Page-1" id="i-NhLRbu7dbLxaArDhGR">
    <mxGraphModel dx="1050" dy="573" grid="1" gridSize="10" guides="1" tooltips="1" connect="1" arrows="1" fold="1" page="1" pageScale="1" pageWidth="850" pageHeight="1400" math="0" shadow="0">
      <root>
        <mxCell id="0" />
        <mxCell id="1" parent="0" />
        <mxCell id="j6z6jnKe2vvA5w4P3QJ6-18" style="rounded=0;orthogonalLoop=1;jettySize=auto;html=1;entryX=0;entryY=0.5;entryDx=0;entryDy=0;strokeWidth=3;" edge="1" parent="1" target="j6z6jnKe2vvA5w4P3QJ6-2">
          <mxGeometry relative="1" as="geometry">
            <mxPoint x="110" y="360" as="sourcePoint" />
          </mxGeometry>
        </mxCell>
        <mxCell id="j6z6jnKe2vvA5w4P3QJ6-1" value="&lt;h2&gt;&lt;font style=&quot;font-size: 22px;&quot;&gt;customer&lt;/font&gt;&lt;/h2&gt;" style="shape=umlActor;verticalLabelPosition=bottom;verticalAlign=top;html=1;outlineConnect=0;" vertex="1" parent="1">
          <mxGeometry x="40" y="310" width="45" height="70" as="geometry" />
        </mxCell>
        <mxCell id="j6z6jnKe2vvA5w4P3QJ6-2" value="&lt;h1&gt;Browse Product&lt;/h1&gt;" style="ellipse;whiteSpace=wrap;html=1;strokeWidth=3;fillColor=#B3B3B3;" vertex="1" parent="1">
          <mxGeometry x="185" y="110" width="240" height="70" as="geometry" />
        </mxCell>
        <mxCell id="j6z6jnKe2vvA5w4P3QJ6-3" value="&lt;h1&gt;Manage Order&lt;/h1&gt;" style="ellipse;whiteSpace=wrap;html=1;strokeWidth=3;fillColor=#B3B3B3;" vertex="1" parent="1">
          <mxGeometry x="520" y="410" width="260" height="70" as="geometry" />
        </mxCell>
        <mxCell id="j6z6jnKe2vvA5w4P3QJ6-5" value="&lt;h1&gt;Manage Cart&lt;/h1&gt;" style="ellipse;whiteSpace=wrap;html=1;strokeWidth=3;fillColor=#B3B3B3;" vertex="1" parent="1">
          <mxGeometry x="190" y="230" width="240" height="70" as="geometry" />
        </mxCell>
        <mxCell id="j6z6jnKe2vvA5w4P3QJ6-6" value="&lt;h1&gt;Add Product&lt;/h1&gt;" style="ellipse;whiteSpace=wrap;html=1;strokeWidth=3;fillColor=#CCFFFF;" vertex="1" parent="1">
          <mxGeometry x="520" y="270" width="250" height="80" as="geometry" />
        </mxCell>
        <mxCell id="j6z6jnKe2vvA5w4P3QJ6-8" value="&lt;h1&gt;Manage Customer&lt;/h1&gt;" style="ellipse;whiteSpace=wrap;html=1;strokeWidth=3;fillColor=#CCFFFF;" vertex="1" parent="1">
          <mxGeometry x="520" y="520" width="260" height="80" as="geometry" />
        </mxCell>
        <mxCell id="j6z6jnKe2vvA5w4P3QJ6-9" value="&lt;h1&gt;Manage Inventory&amp;nbsp;&lt;/h1&gt;" style="ellipse;whiteSpace=wrap;html=1;strokeWidth=3;fillColor=#CCFFFF;" vertex="1" parent="1">
          <mxGeometry x="520" y="650" width="260" height="70" as="geometry" />
        </mxCell>
        <mxCell id="j6z6jnKe2vvA5w4P3QJ6-10" value="&lt;h1&gt;Hire Member&lt;/h1&gt;" style="ellipse;whiteSpace=wrap;html=1;strokeWidth=3;fillColor=#CCFFFF;" vertex="1" parent="1">
          <mxGeometry x="520" y="770" width="260" height="75" as="geometry" />
        </mxCell>
        <mxCell id="j6z6jnKe2vvA5w4P3QJ6-12" value="&lt;h1&gt;Delivered Order&lt;/h1&gt;" style="ellipse;whiteSpace=wrap;html=1;strokeWidth=3;fillColor=#CCFFFF;" vertex="1" parent="1">
          <mxGeometry x="530" y="890" width="250" height="80" as="geometry" />
        </mxCell>
        <mxCell id="j6z6jnKe2vvA5w4P3QJ6-21" style="rounded=0;orthogonalLoop=1;jettySize=auto;html=1;entryX=0.01;entryY=0.637;entryDx=0;entryDy=0;entryPerimeter=0;strokeWidth=3;" edge="1" parent="1" target="j6z6jnKe2vvA5w4P3QJ6-3">
          <mxGeometry relative="1" as="geometry">
            <mxPoint x="120" y="690" as="sourcePoint" />
          </mxGeometry>
        </mxCell>
        <mxCell id="j6z6jnKe2vvA5w4P3QJ6-13" value="&lt;h2&gt;&lt;font style=&quot;font-size: 22px;&quot;&gt;delivery man&lt;/font&gt;&lt;/h2&gt;" style="shape=umlActor;verticalLabelPosition=bottom;verticalAlign=top;html=1;outlineConnect=0;" vertex="1" parent="1">
          <mxGeometry x="50" y="650" width="35" height="60" as="geometry" />
        </mxCell>
        <mxCell id="j6z6jnKe2vvA5w4P3QJ6-23" style="rounded=0;orthogonalLoop=1;jettySize=auto;html=1;entryX=1;entryY=0.5;entryDx=0;entryDy=0;strokeWidth=3;" edge="1" parent="1" target="j6z6jnKe2vvA5w4P3QJ6-6">
          <mxGeometry relative="1" as="geometry">
            <mxPoint x="880" y="170" as="sourcePoint" />
          </mxGeometry>
        </mxCell>
        <mxCell id="j6z6jnKe2vvA5w4P3QJ6-14" value="&lt;h2&gt;&lt;font style=&quot;font-size: 22px;&quot;&gt;admin&lt;/font&gt;&lt;/h2&gt;" style="shape=umlActor;verticalLabelPosition=bottom;verticalAlign=top;html=1;outlineConnect=0;" vertex="1" parent="1">
          <mxGeometry x="890" y="140" width="40" height="60" as="geometry" />
        </mxCell>
        <mxCell id="j6z6jnKe2vvA5w4P3QJ6-15" value="&lt;h2&gt;&lt;span style=&quot;font-size: 22px;&quot;&gt;staff&lt;/span&gt;&lt;/h2&gt;" style="shape=umlActor;verticalLabelPosition=bottom;verticalAlign=top;html=1;outlineConnect=0;" vertex="1" parent="1">
          <mxGeometry x="920" y="680" width="40" height="60" as="geometry" />
        </mxCell>
        <mxCell id="j6z6jnKe2vvA5w4P3QJ6-19" style="rounded=0;orthogonalLoop=1;jettySize=auto;html=1;entryX=0;entryY=0.5;entryDx=0;entryDy=0;strokeWidth=3;" edge="1" parent="1" target="j6z6jnKe2vvA5w4P3QJ6-5">
          <mxGeometry relative="1" as="geometry">
            <mxPoint x="110" y="360" as="sourcePoint" />
            <mxPoint x="195" y="155" as="targetPoint" />
          </mxGeometry>
        </mxCell>
        <mxCell id="j6z6jnKe2vvA5w4P3QJ6-20" style="rounded=0;orthogonalLoop=1;jettySize=auto;html=1;entryX=0;entryY=0.5;entryDx=0;entryDy=0;strokeWidth=3;" edge="1" parent="1" target="j6z6jnKe2vvA5w4P3QJ6-3">
          <mxGeometry relative="1" as="geometry">
            <mxPoint x="110" y="360" as="sourcePoint" />
            <mxPoint x="205" y="165" as="targetPoint" />
          </mxGeometry>
        </mxCell>
        <mxCell id="j6z6jnKe2vvA5w4P3QJ6-22" style="rounded=0;orthogonalLoop=1;jettySize=auto;html=1;entryX=0;entryY=0.5;entryDx=0;entryDy=0;strokeWidth=3;" edge="1" parent="1" target="j6z6jnKe2vvA5w4P3QJ6-12">
          <mxGeometry relative="1" as="geometry">
            <mxPoint x="120" y="690" as="sourcePoint" />
            <mxPoint x="382" y="630" as="targetPoint" />
          </mxGeometry>
        </mxCell>
        <mxCell id="j6z6jnKe2vvA5w4P3QJ6-24" style="rounded=0;orthogonalLoop=1;jettySize=auto;html=1;entryX=1.014;entryY=0.409;entryDx=0;entryDy=0;strokeWidth=3;entryPerimeter=0;" edge="1" parent="1" target="j6z6jnKe2vvA5w4P3QJ6-3">
          <mxGeometry relative="1" as="geometry">
            <mxPoint x="880" y="170" as="sourcePoint" />
            <mxPoint x="780" y="320" as="targetPoint" />
          </mxGeometry>
        </mxCell>
        <mxCell id="j6z6jnKe2vvA5w4P3QJ6-25" style="rounded=0;orthogonalLoop=1;jettySize=auto;html=1;entryX=1;entryY=0.5;entryDx=0;entryDy=0;strokeWidth=3;" edge="1" parent="1" target="j6z6jnKe2vvA5w4P3QJ6-8">
          <mxGeometry relative="1" as="geometry">
            <mxPoint x="880" y="170" as="sourcePoint" />
            <mxPoint x="790" y="330" as="targetPoint" />
          </mxGeometry>
        </mxCell>
        <mxCell id="j6z6jnKe2vvA5w4P3QJ6-26" style="rounded=0;orthogonalLoop=1;jettySize=auto;html=1;entryX=1;entryY=0.5;entryDx=0;entryDy=0;strokeWidth=3;" edge="1" parent="1" target="j6z6jnKe2vvA5w4P3QJ6-9">
          <mxGeometry relative="1" as="geometry">
            <mxPoint x="880" y="170" as="sourcePoint" />
            <mxPoint x="800" y="340" as="targetPoint" />
          </mxGeometry>
        </mxCell>
        <mxCell id="j6z6jnKe2vvA5w4P3QJ6-27" style="rounded=0;orthogonalLoop=1;jettySize=auto;html=1;entryX=1;entryY=0.5;entryDx=0;entryDy=0;strokeWidth=3;" edge="1" parent="1" target="j6z6jnKe2vvA5w4P3QJ6-10">
          <mxGeometry relative="1" as="geometry">
            <mxPoint x="880" y="170" as="sourcePoint" />
            <mxPoint x="810" y="350" as="targetPoint" />
          </mxGeometry>
        </mxCell>
        <mxCell id="j6z6jnKe2vvA5w4P3QJ6-28" style="rounded=0;orthogonalLoop=1;jettySize=auto;html=1;entryX=1;entryY=0.5;entryDx=0;entryDy=0;strokeWidth=3;" edge="1" parent="1" target="j6z6jnKe2vvA5w4P3QJ6-12">
          <mxGeometry relative="1" as="geometry">
            <mxPoint x="880" y="170" as="sourcePoint" />
            <mxPoint x="820" y="360" as="targetPoint" />
          </mxGeometry>
        </mxCell>
        <mxCell id="j6z6jnKe2vvA5w4P3QJ6-30" style="rounded=0;orthogonalLoop=1;jettySize=auto;html=1;entryX=0.914;entryY=0.858;entryDx=0;entryDy=0;strokeWidth=3;entryPerimeter=0;" edge="1" parent="1" target="j6z6jnKe2vvA5w4P3QJ6-6">
          <mxGeometry relative="1" as="geometry">
            <mxPoint x="910" y="710" as="sourcePoint" />
            <mxPoint x="790" y="940" as="targetPoint" />
          </mxGeometry>
        </mxCell>
        <mxCell id="j6z6jnKe2vvA5w4P3QJ6-31" style="rounded=0;orthogonalLoop=1;jettySize=auto;html=1;entryX=0.965;entryY=0.74;entryDx=0;entryDy=0;strokeWidth=3;entryPerimeter=0;" edge="1" parent="1" target="j6z6jnKe2vvA5w4P3QJ6-3">
          <mxGeometry relative="1" as="geometry">
            <mxPoint x="910" y="710" as="sourcePoint" />
            <mxPoint x="759" y="349" as="targetPoint" />
          </mxGeometry>
        </mxCell>
        <mxCell id="j6z6jnKe2vvA5w4P3QJ6-32" style="rounded=0;orthogonalLoop=1;jettySize=auto;html=1;entryX=0.977;entryY=0.672;entryDx=0;entryDy=0;strokeWidth=3;entryPerimeter=0;" edge="1" parent="1" target="j6z6jnKe2vvA5w4P3QJ6-8">
          <mxGeometry relative="1" as="geometry">
            <mxPoint x="910" y="710" as="sourcePoint" />
            <mxPoint x="781" y="472" as="targetPoint" />
          </mxGeometry>
        </mxCell>
        <mxCell id="j6z6jnKe2vvA5w4P3QJ6-33" style="rounded=0;orthogonalLoop=1;jettySize=auto;html=1;entryX=0.992;entryY=0.706;entryDx=0;entryDy=0;strokeWidth=3;entryPerimeter=0;" edge="1" parent="1" target="j6z6jnKe2vvA5w4P3QJ6-9">
          <mxGeometry relative="1" as="geometry">
            <mxPoint x="910" y="710" as="sourcePoint" />
            <mxPoint x="784" y="584" as="targetPoint" />
          </mxGeometry>
        </mxCell>
        <mxCell id="j6z6jnKe2vvA5w4P3QJ6-34" value="" style="verticalLabelPosition=bottom;verticalAlign=top;html=1;shape=mxgraph.basic.rect;fillColor2=none;strokeWidth=3;size=20;indent=5;fillColor=none;" vertex="1" parent="1">
          <mxGeometry x="160" y="80" width="650" height="920" as="geometry" />
        </mxCell>
      </root>
    </mxGraphModel>
  </diagram>
</mxfile>
